<svg xmlns="http://www.w3.org/2000/svg" xmlns:xlink="http://www.w3.org/1999/xlink" version="1.1" id="Layer_1" x="0px" y="0px" viewBox="0 0 131.625 19.36" style="enable-background:new 0 0 131.625 19.36;" xml:space="preserve">
<style type="text/css">
	.st0{fill:#FFFFFF;}
</style>
<g>
	<g>
		<g>
			<g>
				<path class="st0" d="M43.528,12.583h-3.841l-0.63,2.377h-2.299l3.417-11.273h2.944L46.55,14.96h-2.362L43.528,12.583z       M40.19,10.741h2.834l-1.385-5.07H41.56L40.19,10.741z"></path>
				<path class="st0" d="M53.952,10.205l2.487,4.755H53.92l-2.189-4.424h-1.669v4.424h-2.188V3.687h3.889      c3.07,0,3.999,1.165,3.999,3.354C55.762,8.6,55.227,9.701,53.952,10.205z M51.622,5.561h-1.559v3.18h1.559      c1.511,0,1.905-0.425,1.905-1.637C53.526,5.876,53.039,5.561,51.622,5.561z"></path>
				<path class="st0" d="M60.691,15.149c-1.291,0-2.346-0.173-3.259-0.472l0.393-1.89c0.85,0.283,2.015,0.504,2.991,0.504      c1.055,0,1.795-0.283,1.795-1.433c0-0.882-0.441-1.197-1.905-1.622c-2.063-0.598-3.196-1.275-3.196-3.464      c0-2.393,1.323-3.275,3.873-3.275c1.087,0,2,0.189,2.991,0.583l-0.268,1.81c-0.771-0.315-1.747-0.504-2.677-0.504      c-0.96,0-1.653,0.157-1.653,1.212s0.677,1.338,2,1.732c2.314,0.677,3.117,1.307,3.117,3.354      C64.895,14.189,63.714,15.149,60.691,15.149z"></path>
				<path class="st0" d="M66.124,9.355c0-4.534,1.511-5.857,4.613-5.857c3.07,0,4.582,1.307,4.582,5.81      c0,4.566-1.464,5.841-4.582,5.841C67.635,15.149,66.124,13.874,66.124,9.355z M73.036,9.292c0-3.007-0.472-3.889-2.314-3.889      c-1.842,0-2.314,0.866-2.314,3.889c0,2.991,0.472,3.952,2.314,3.952C72.563,13.244,73.036,12.284,73.036,9.292z"></path>
				<polygon class="st0" points="79.665,3.687 80.893,3.687 83.916,13.795 83.979,13.795 86.971,3.687 88.136,3.687 84.751,14.96       83.066,14.96     "></polygon>
				<path class="st0" d="M91.05,14.96h-1.197V3.687h3.605c2.582,0,3.747,0.772,3.747,3.102c0,1.889-0.771,2.85-2.393,3.149      l2.629,5.022h-1.37l-2.519-4.897h-2.504L91.05,14.96L91.05,14.96z M91.05,9.056h2.314c1.716,0,2.629-0.331,2.629-2.189      c0-1.795-0.866-2.157-2.629-2.157H91.05V9.056z"></path>
				<polygon class="st0" points="99.678,14.96 99.678,3.687 106.432,3.687 106.432,4.711 100.875,4.711 100.875,8.773       105.692,8.773 105.692,9.781 100.875,9.781 100.875,13.938 106.432,13.938 106.432,14.961 99.678,14.961     "></polygon>
				<polygon class="st0" points="110.448,3.687 113.298,9.891 113.361,9.891 116.195,3.687 117.785,3.687 117.785,14.96       116.698,14.96 116.698,5.089 116.635,5.089 113.896,11.087 112.684,11.087 109.929,5.089 109.866,5.089 109.866,14.96       108.779,14.96 108.779,3.687     "></polygon>
				<polygon class="st0" points="120.857,14.96 120.857,3.687 127.611,3.687 127.611,4.711 122.053,4.711 122.053,8.773       126.871,8.773 126.871,9.781 122.053,9.781 122.053,13.938 127.611,13.938 127.611,14.961 120.857,14.961     "></polygon>
			</g>
		</g>
		<g>
			<path class="st0" d="M18.414,9.276h-2.322c-0.125-1.307-0.658-2.494-1.468-3.439l1.673-1.673c0.205-0.205,0.205-0.537,0-0.742     c-0.205-0.205-0.537-0.205-0.742,0l-1.676,1.676c-0.949-0.789-2.136-1.297-3.436-1.407V1.305c0-0.29-0.235-0.525-0.525-0.525     c-0.29,0-0.525,0.235-0.525,0.525V3.69C8.126,3.796,6.936,4.286,5.958,5.099L4.281,3.422c-0.205-0.205-0.537-0.205-0.742,0     c-0.205,0.205-0.205,0.537,0,0.742L15.554,16.18c0.103,0.102,0.237,0.153,0.371,0.153c0.134,0,0.268-0.051,0.371-0.153     c0.205-0.205,0.205-0.537,0-0.742l-1.608-1.608c0.828-0.995,1.317-2.211,1.411-3.504h2.314c0.29,0,0.525-0.235,0.525-0.525     C18.939,9.511,18.704,9.276,18.414,9.276z M13.945,13.085L6.701,5.842c0.911-0.73,2.036-1.127,3.217-1.127     c2.842,0,5.154,2.312,5.154,5.154C15.072,11.051,14.675,12.175,13.945,13.085z"></path>
			<path class="st0" d="M7.921,11.798c-0.205-0.205-0.537-0.205-0.742,0l-2.026,2.026c-0.205,0.205-0.205,0.537,0,0.742     c0.103,0.102,0.237,0.153,0.371,0.153c0.134,0,0.268-0.051,0.371-0.153l2.026-2.026C8.126,12.335,8.126,12.003,7.921,11.798z"></path>
			<path class="st0" d="M5.198,9.075c-0.205-0.205-0.537-0.205-0.742,0l-2.026,2.026c-0.205,0.205-0.205,0.537,0,0.742     c0.103,0.102,0.237,0.153,0.371,0.153s0.268-0.051,0.371-0.153l2.026-2.026C5.402,9.612,5.402,9.28,5.198,9.075z"></path>
			<path class="st0" d="M9.97,14.589l-2.026,2.026c-0.205,0.205-0.205,0.537,0,0.742c0.103,0.102,0.237,0.153,0.371,0.153     s0.268-0.051,0.371-0.153l2.026-2.026c0.205-0.205,0.205-0.537,0-0.742C10.507,14.384,10.175,14.384,9.97,14.589z"></path>
		</g>
	</g>
</g>
</svg>
